<svg width="39" height="47" viewBox="0 0 39 47" fill="none" xmlns="http://www.w3.org/2000/svg">
<path fill-rule="evenodd" clip-rule="evenodd" d="M19.786 36.835C18.866 36.835 18.0959 36.7934 17.26 36.4107L14.3834 35.1695C13.4618 34.818 11.9544 34.0738 11.0106 33.6943C10.1158 33.3349 4.55454 30.9387 4.22474 30.7184C3.26417 30.0777 2.39895 28.9302 2.39895 27.6591V13.6403C2.39895 12.6933 2.83744 11.8375 3.29862 11.3018C3.89894 10.605 4.33209 10.3492 5.27957 9.98095L12.2281 6.96761C12.4455 6.88029 12.5531 6.80898 12.7785 6.72166L15.7042 5.46307C17.8911 4.50785 19.582 3.70752 22.3125 4.95222C22.7091 5.13301 23.0653 5.2903 23.4616 5.46307L29.2573 7.96903C30.3437 8.49057 32.0984 9.18836 33.2945 9.71017C34.3248 10.1601 35.1566 10.4627 35.86 11.3084C36.3428 11.889 36.7669 12.6989 36.7669 13.7038V27.5953C36.7669 28.5134 36.2977 29.3273 35.8691 29.8721C35.5719 30.25 35.4146 30.3886 35.0188 30.6644C34.4983 31.0271 29.7556 32.9821 28.7606 33.4358L22.4698 36.1768C21.6759 36.5237 20.9183 36.835 19.7857 36.835H19.786ZM0.0310547 6.24872C0.0310547 7.90227 -0.0602748 21.8383 0.0703104 22.652C0.2276 23.632 -0.037576 24.6847 0.330413 26.6125C0.41293 27.0438 0.496515 27.3555 0.58918 27.7705L0.824714 28.5788C0.859697 28.6958 0.879725 28.7951 0.903225 28.8774C1.52197 31.0378 2.91541 33.8829 4.1286 35.7797L6.30796 38.6972C7.0215 39.466 8.07687 40.6009 8.90391 41.2223L12.2356 43.7555C13.2738 44.405 13.935 44.7847 15.0954 45.3314C19.4674 47.39 19.3801 47.5369 23.7551 45.4798C24.4128 45.1709 24.9571 44.8675 25.575 44.5179L28.1557 42.8708C31.4345 40.5651 34.0596 37.5326 36.0005 34.1379C36.4622 33.3306 37.0054 32.1748 37.3472 31.3283C38.1579 29.3204 38.9439 27.0134 38.931 24.7275C38.9286 24.2123 39.0026 23.9693 38.9999 23.4542L38.9994 2.68046C38.9994 2.34398 38.5195 1.71322 37.8765 1.5076C37.2142 1.29583 36.6262 1.22934 35.8592 1.11531C34.4687 0.909148 32.9834 0.729961 31.6129 0.588961C25.0431 -0.0871982 22.5793 0.00413135 16.1323 0.00413135C12.7373 0.00413135 6.45537 0.618603 3.13305 1.14174C2.47612 1.24509 1.25679 1.36633 0.859964 1.67771C-0.0106043 2.36027 0.0959468 2.73894 0.0986172 3.63675C0.0999524 4.15963 0.027049 4.44136 0.0291854 4.90922C0.0307877 5.35599 0.0305206 5.80222 0.0305206 6.24899L0.0310547 6.24872Z" fill="#FFCC00"/>
<path fill-rule="evenodd" clip-rule="evenodd" d="M5.78201 13.8317C5.78201 14.4742 5.82126 15.0692 6.61439 15.469C7.52741 15.9302 10.0558 16.974 10.9224 17.3372L16.6361 19.8573C17.6693 20.5201 17.8258 21.5587 17.8239 22.6891V30.5907C17.8239 31.3633 17.7245 31.8357 18.0821 32.3228C18.7703 33.2596 20.371 33.2756 21.1021 32.2766C21.4327 31.8258 21.3419 31.2404 21.3419 30.5269V22.6253C21.3414 21.8303 21.3508 21.4604 21.6122 20.9044C22.2307 19.5866 23.9478 19.2754 25.424 18.5688C25.687 18.4431 25.8534 18.3891 26.1231 18.2714C27.8322 17.5247 30.2792 16.3975 31.8673 15.7804C32.1073 15.6869 32.3765 15.5654 32.596 15.4471C33.8279 14.784 33.5011 13.0357 32.4177 12.5117C31.5201 12.0778 30.6127 12.5953 29.5969 13.068L26.0767 14.5957C25.7661 14.7258 25.4873 14.8561 25.1973 14.9779L21.6707 16.499C20.8316 16.8192 20.7216 17.0178 19.5151 17.0178C18.0498 17.0178 15.4966 15.5729 14.0639 15.0155L10.5856 13.5123C10.2961 13.3908 10.0163 13.2602 9.70624 13.1299C8.68986 12.7027 7.83692 12.1031 6.88838 12.4527C6.27631 12.6778 5.78174 13.4071 5.78174 13.8317H5.78201Z" fill="#FFCC00"/>
</svg>
